<mxfile host="app.diagrams.net" agent="Mozilla/5.0 (Windows NT 10.0; Win64; x64) AppleWebKit/537.36 (KHTML, like Gecko) Chrome/140.0.0.0 Safari/537.36 Edg/140.0.0.0" version="28.2.2">
  <diagram id="IIJvmYnE2bA1GNp1zXpH" name="ページ1">
    <mxGraphModel dx="973" dy="634" grid="1" gridSize="10" guides="1" tooltips="1" connect="1" arrows="1" fold="1" page="1" pageScale="1" pageWidth="827" pageHeight="1169" math="0" shadow="0">
      <root>
        <mxCell id="0" />
        <mxCell id="1" parent="0" />
        <mxCell id="oTEgjta9p7YTeW6vRbLK-2" value="ユーザ" style="shape=umlActor;verticalLabelPosition=bottom;verticalAlign=top;html=1;outlineConnect=0;" vertex="1" parent="1">
          <mxGeometry x="120" y="130" width="30" height="60" as="geometry" />
        </mxCell>
        <mxCell id="oTEgjta9p7YTeW6vRbLK-3" value="" style="shape=umlBoundary;whiteSpace=wrap;html=1;" vertex="1" parent="1">
          <mxGeometry x="320" y="70" width="75" height="60" as="geometry" />
        </mxCell>
        <mxCell id="oTEgjta9p7YTeW6vRbLK-4" value="ブラウザ" style="text;html=1;align=center;verticalAlign=middle;whiteSpace=wrap;rounded=0;" vertex="1" parent="1">
          <mxGeometry x="327.5" y="130" width="62.5" height="30" as="geometry" />
        </mxCell>
        <mxCell id="oTEgjta9p7YTeW6vRbLK-5" value="" style="shape=umlBoundary;whiteSpace=wrap;html=1;" vertex="1" parent="1">
          <mxGeometry x="321.25" y="190" width="75" height="60" as="geometry" />
        </mxCell>
        <mxCell id="oTEgjta9p7YTeW6vRbLK-6" value="ログイン画面" style="text;html=1;align=center;verticalAlign=middle;whiteSpace=wrap;rounded=0;" vertex="1" parent="1">
          <mxGeometry x="327.5" y="250" width="77.5" height="30" as="geometry" />
        </mxCell>
        <mxCell id="oTEgjta9p7YTeW6vRbLK-7" value="" style="ellipse;shape=umlControl;whiteSpace=wrap;html=1;" vertex="1" parent="1">
          <mxGeometry x="580" y="80" width="61.25" height="70" as="geometry" />
        </mxCell>
        <mxCell id="oTEgjta9p7YTeW6vRbLK-8" value="表示" style="text;html=1;align=center;verticalAlign=middle;whiteSpace=wrap;rounded=0;" vertex="1" parent="1">
          <mxGeometry x="580" y="150" width="62.5" height="30" as="geometry" />
        </mxCell>
        <mxCell id="oTEgjta9p7YTeW6vRbLK-10" value="" style="endArrow=open;endFill=1;endSize=12;html=1;rounded=0;entryX=0.004;entryY=0.504;entryDx=0;entryDy=0;entryPerimeter=0;" edge="1" parent="1" target="oTEgjta9p7YTeW6vRbLK-3">
          <mxGeometry width="160" relative="1" as="geometry">
            <mxPoint x="160" y="140" as="sourcePoint" />
            <mxPoint x="440" y="170" as="targetPoint" />
          </mxGeometry>
        </mxCell>
        <mxCell id="oTEgjta9p7YTeW6vRbLK-11" value="" style="endArrow=open;endFill=1;endSize=12;html=1;rounded=0;entryX=0.034;entryY=0.38;entryDx=0;entryDy=0;entryPerimeter=0;exitX=0.989;exitY=0.443;exitDx=0;exitDy=0;exitPerimeter=0;" edge="1" parent="1" source="oTEgjta9p7YTeW6vRbLK-3" target="oTEgjta9p7YTeW6vRbLK-7">
          <mxGeometry width="160" relative="1" as="geometry">
            <mxPoint x="170" y="170" as="sourcePoint" />
            <mxPoint x="330" y="130" as="targetPoint" />
          </mxGeometry>
        </mxCell>
        <mxCell id="oTEgjta9p7YTeW6vRbLK-12" value="" style="endArrow=open;endFill=1;endSize=12;html=1;rounded=0;exitX=-0.045;exitY=0.561;exitDx=0;exitDy=0;exitPerimeter=0;entryX=0.971;entryY=0.292;entryDx=0;entryDy=0;entryPerimeter=0;" edge="1" parent="1" source="oTEgjta9p7YTeW6vRbLK-7" target="oTEgjta9p7YTeW6vRbLK-5">
          <mxGeometry width="160" relative="1" as="geometry">
            <mxPoint x="390" y="140" as="sourcePoint" />
            <mxPoint x="410" y="209" as="targetPoint" />
          </mxGeometry>
        </mxCell>
        <mxCell id="oTEgjta9p7YTeW6vRbLK-13" value="" style="ellipse;shape=umlControl;whiteSpace=wrap;html=1;" vertex="1" parent="1">
          <mxGeometry x="580" y="185" width="61.25" height="70" as="geometry" />
        </mxCell>
        <mxCell id="oTEgjta9p7YTeW6vRbLK-14" value="" style="endArrow=open;endFill=1;endSize=12;html=1;rounded=0;exitX=0.987;exitY=0.546;exitDx=0;exitDy=0;exitPerimeter=0;entryX=-0.003;entryY=0.526;entryDx=0;entryDy=0;entryPerimeter=0;" edge="1" parent="1" source="oTEgjta9p7YTeW6vRbLK-5" target="oTEgjta9p7YTeW6vRbLK-13">
          <mxGeometry width="160" relative="1" as="geometry">
            <mxPoint x="410" y="225" as="sourcePoint" />
            <mxPoint x="560" y="220" as="targetPoint" />
          </mxGeometry>
        </mxCell>
        <mxCell id="oTEgjta9p7YTeW6vRbLK-15" value="ユーザ認証" style="text;html=1;align=center;verticalAlign=middle;whiteSpace=wrap;rounded=0;" vertex="1" parent="1">
          <mxGeometry x="580" y="255" width="62.5" height="30" as="geometry" />
        </mxCell>
        <mxCell id="oTEgjta9p7YTeW6vRbLK-16" value="" style="ellipse;shape=umlEntity;whiteSpace=wrap;html=1;" vertex="1" parent="1">
          <mxGeometry x="730" y="195" width="60" height="60" as="geometry" />
        </mxCell>
        <mxCell id="oTEgjta9p7YTeW6vRbLK-17" value="訪問者" style="text;html=1;align=center;verticalAlign=middle;whiteSpace=wrap;rounded=0;" vertex="1" parent="1">
          <mxGeometry x="727.5" y="255" width="62.5" height="30" as="geometry" />
        </mxCell>
        <mxCell id="oTEgjta9p7YTeW6vRbLK-18" value="" style="endArrow=open;endFill=1;endSize=12;html=1;rounded=0;entryX=0;entryY=0.5;entryDx=0;entryDy=0;" edge="1" parent="1" target="oTEgjta9p7YTeW6vRbLK-16">
          <mxGeometry width="160" relative="1" as="geometry">
            <mxPoint x="680" y="225" as="sourcePoint" />
            <mxPoint x="640" y="130" as="targetPoint" />
          </mxGeometry>
        </mxCell>
        <mxCell id="oTEgjta9p7YTeW6vRbLK-19" value="" style="endArrow=open;endFill=1;endSize=12;html=1;rounded=0;" edge="1" parent="1">
          <mxGeometry width="160" relative="1" as="geometry">
            <mxPoint x="680" y="225" as="sourcePoint" />
            <mxPoint x="641.2499999999999" y="225" as="targetPoint" />
          </mxGeometry>
        </mxCell>
        <mxCell id="oTEgjta9p7YTeW6vRbLK-20" value="" style="ellipse;shape=umlControl;whiteSpace=wrap;html=1;" vertex="1" parent="1">
          <mxGeometry x="450" y="260" width="61.25" height="70" as="geometry" />
        </mxCell>
        <mxCell id="oTEgjta9p7YTeW6vRbLK-21" value="" style="shape=umlBoundary;whiteSpace=wrap;html=1;" vertex="1" parent="1">
          <mxGeometry x="321.25" y="320" width="75" height="60" as="geometry" />
        </mxCell>
        <mxCell id="oTEgjta9p7YTeW6vRbLK-22" value="Welcomeページ" style="text;html=1;align=center;verticalAlign=middle;whiteSpace=wrap;rounded=0;" vertex="1" parent="1">
          <mxGeometry x="321" y="380" width="92.5" height="30" as="geometry" />
        </mxCell>
        <mxCell id="oTEgjta9p7YTeW6vRbLK-23" value="表示" style="text;html=1;align=center;verticalAlign=middle;whiteSpace=wrap;rounded=0;" vertex="1" parent="1">
          <mxGeometry x="434.38" y="330" width="92.5" height="30" as="geometry" />
        </mxCell>
        <mxCell id="oTEgjta9p7YTeW6vRbLK-24" value="" style="endArrow=open;endFill=1;endSize=12;html=1;rounded=0;exitX=-0.008;exitY=0.717;exitDx=0;exitDy=0;exitPerimeter=0;entryX=0.876;entryY=0.324;entryDx=0;entryDy=0;entryPerimeter=0;" edge="1" parent="1" source="oTEgjta9p7YTeW6vRbLK-13" target="oTEgjta9p7YTeW6vRbLK-20">
          <mxGeometry width="160" relative="1" as="geometry">
            <mxPoint x="520" y="221" as="sourcePoint" />
            <mxPoint x="705" y="220" as="targetPoint" />
          </mxGeometry>
        </mxCell>
        <mxCell id="oTEgjta9p7YTeW6vRbLK-25" value="" style="endArrow=open;endFill=1;endSize=12;html=1;rounded=0;exitX=0.073;exitY=0.776;exitDx=0;exitDy=0;exitPerimeter=0;entryX=0.954;entryY=0.281;entryDx=0;entryDy=0;entryPerimeter=0;" edge="1" parent="1" source="oTEgjta9p7YTeW6vRbLK-20" target="oTEgjta9p7YTeW6vRbLK-21">
          <mxGeometry width="160" relative="1" as="geometry">
            <mxPoint x="586" y="270" as="sourcePoint" />
            <mxPoint x="510" y="318" as="targetPoint" />
          </mxGeometry>
        </mxCell>
        <mxCell id="oTEgjta9p7YTeW6vRbLK-26" value="" style="shape=umlBoundary;whiteSpace=wrap;html=1;" vertex="1" parent="1">
          <mxGeometry x="321.25" y="450" width="75" height="60" as="geometry" />
        </mxCell>
        <mxCell id="oTEgjta9p7YTeW6vRbLK-27" value="新規登録画面" style="text;html=1;align=center;verticalAlign=middle;whiteSpace=wrap;rounded=0;" vertex="1" parent="1">
          <mxGeometry x="312.5" y="510" width="92.5" height="30" as="geometry" />
        </mxCell>
        <mxCell id="oTEgjta9p7YTeW6vRbLK-28" value="" style="ellipse;shape=umlControl;whiteSpace=wrap;html=1;" vertex="1" parent="1">
          <mxGeometry x="450.01" y="410" width="61.25" height="70" as="geometry" />
        </mxCell>
      </root>
    </mxGraphModel>
  </diagram>
</mxfile>
